<svg id="Layer_1" data-name="Layer 1" xmlns="http://www.w3.org/2000/svg" viewBox="0 0 237 216"><defs><style>.cls-1{fill:#fac113;}.cls-2{fill:#113053;}</style></defs><title>Logo 02</title><path class="cls-1" d="M29.48,56.24l30,127.21a103.13,103.13,0,0,1-30-127.21Z"/><path class="cls-2" d="M179.11,70.5a62.83,62.83,0,0,0-13.68-27.07,51.42,51.42,0,0,0-23.29-15.14c-9-2.91-18.63-2.91-29.11-.58L62.67,39.64l25.62,108,50.36-11.93c10.19-2.62,18.92-7,25.91-13.39a54,54,0,0,0,14.26-23C181.44,90.3,181.44,80.69,179.11,70.5Zm-50.65,38.72C113.61,113,98.77,103.69,95,88.84a27.82,27.82,0,1,1,33.48,20.38Z"/><path class="cls-1" d="M226.27,101.36A103.48,103.48,0,0,1,122.64,205a128.58,128.58,0,0,1-21.25-2l-5.24-22.71,50.07-11.94c16.88-4.07,31.15-11.35,42.5-21.54a78.1,78.1,0,0,0,23.58-37.55c4.37-14.56,4.66-30.28.58-46.58a106.3,106.3,0,0,0-11.35-28.82A104.07,104.07,0,0,1,226.27,101.36Z"/></svg>