<svg id="Layer_1" data-name="Layer 1" xmlns="http://www.w3.org/2000/svg" viewBox="0 0 246 216"><defs><style>.cls-1{fill:#113053;}.cls-2{fill:#fac113;}</style></defs><title>Logo 01</title><path class="cls-1" d="M55.16,202.81a3.08,3.08,0,0,1-1.63-.43,3.2,3.2,0,0,1-1.14-1.17,3.38,3.38,0,0,1-.42-1.68,3.32,3.32,0,0,1,.43-1.69,3.24,3.24,0,0,1,2.85-1.6,3.17,3.17,0,0,1,1.67.43,3.23,3.23,0,0,1,1.18,1.17,3.43,3.43,0,0,1,.44,1.69l-.37.29a3,3,0,0,1-.39,1.52,2.87,2.87,0,0,1-1.08,1.08A3,3,0,0,1,55.16,202.81Zm.09-.82a2.4,2.4,0,0,0,1.23-.32,2.32,2.32,0,0,0,.85-.88,2.72,2.72,0,0,0,0-2.52,2.34,2.34,0,0,0-2.08-1.21,2.29,2.29,0,0,0-1.21.33,2.34,2.34,0,0,0-.86.88,2.64,2.64,0,0,0,0,2.52,2.34,2.34,0,0,0,.86.88A2.38,2.38,0,0,0,55.25,202Zm2.82.77a.42.42,0,0,1-.32-.13.41.41,0,0,1-.13-.32v-2l.22-.94.7.18v2.78a.41.41,0,0,1-.13.32A.45.45,0,0,1,58.07,202.76Z"/><path class="cls-1" d="M61.23,202.76a1.4,1.4,0,0,1-.84-.27,1.67,1.67,0,0,1-.58-.72,2.47,2.47,0,0,1-.21-1.06V194a.45.45,0,0,1,.13-.33.46.46,0,0,1,.64,0,.42.42,0,0,1,.13.33v6.72a1.48,1.48,0,0,0,.21.83.62.62,0,0,0,.52.32h.29a.37.37,0,0,1,.29.12.5.5,0,0,1,.11.33.39.39,0,0,1-.15.32.55.55,0,0,1-.38.13Z"/><path class="cls-1" d="M64.08,202.76a1.4,1.4,0,0,1-.84-.27,1.67,1.67,0,0,1-.58-.72,2.47,2.47,0,0,1-.21-1.06V194a.44.44,0,0,1,.46-.46.46.46,0,0,1,.32.13.45.45,0,0,1,.12.33v6.72a1.48,1.48,0,0,0,.21.83.62.62,0,0,0,.52.32h.3a.35.35,0,0,1,.28.12.46.46,0,0,1,.11.33.39.39,0,0,1-.15.32.55.55,0,0,1-.38.13Z"/><path class="cls-1" d="M69,202.76a.42.42,0,0,1-.33-.13.41.41,0,0,1-.13-.32v-5.55a.42.42,0,0,1,.13-.34.45.45,0,0,1,.33-.13.44.44,0,0,1,.32.13.42.42,0,0,1,.13.34v5.55a.44.44,0,0,1-.45.45Zm5.07,0a.44.44,0,0,1-.45-.45v-3.08a2.42,2.42,0,0,0-.28-1.2,1.85,1.85,0,0,0-.76-.71,2.38,2.38,0,0,0-1.08-.24,2.31,2.31,0,0,0-1,.24,1.81,1.81,0,0,0-.73.6,1.56,1.56,0,0,0-.27.89H68.8a2.53,2.53,0,0,1,.4-1.33,2.58,2.58,0,0,1,1-.91,2.87,2.87,0,0,1,1.4-.34,3.22,3.22,0,0,1,1.5.34,2.58,2.58,0,0,1,1,1,3.28,3.28,0,0,1,.39,1.63v3.08a.43.43,0,0,1-.14.32A.42.42,0,0,1,74.07,202.76Z"/><path class="cls-1" d="M79,202.81a3.33,3.33,0,0,1-1.69-.41,3,3,0,0,1-1.16-1.17,3.4,3.4,0,0,1-.42-1.7,3.45,3.45,0,0,1,.4-1.7,3,3,0,0,1,1.08-1.17,3.12,3.12,0,0,1,1.61-.42,3,3,0,0,1,1.57.4,2.81,2.81,0,0,1,1,1.13,3.64,3.64,0,0,1,.37,1.65.37.37,0,0,1-.12.29.41.41,0,0,1-.31.11h-5v-.75h5.12l-.51.37a2.85,2.85,0,0,0-.24-1.23,2,2,0,0,0-1.89-1.16,2.14,2.14,0,0,0-1.17.32,2.19,2.19,0,0,0-.8.88,2.93,2.93,0,0,0-.27,1.28,2.63,2.63,0,0,0,.31,1.28,2.39,2.39,0,0,0,.86.87A2.45,2.45,0,0,0,79,202a2.64,2.64,0,0,0,.86-.15,1.88,1.88,0,0,0,.69-.37.44.44,0,0,1,.29-.11.55.55,0,0,1,.29.08.49.49,0,0,1,.16.32.32.32,0,0,1-.14.27,3.13,3.13,0,0,1-1,.56A3.56,3.56,0,0,1,79,202.81Z"/><path class="cls-1" d="M85.54,202.81a3.37,3.37,0,0,1-1.7-.41,3,3,0,0,1-1.16-1.17,3.4,3.4,0,0,1-.42-1.7,3.56,3.56,0,0,1,.4-1.7,2.93,2.93,0,0,1,1.09-1.17,3.06,3.06,0,0,1,1.6-.42,3,3,0,0,1,1.57.4,2.91,2.91,0,0,1,1,1.13,3.64,3.64,0,0,1,.36,1.65.37.37,0,0,1-.12.29.41.41,0,0,1-.31.11h-5v-.75H88l-.51.37a2.85,2.85,0,0,0-.24-1.23,2,2,0,0,0-1.89-1.16,2.14,2.14,0,0,0-1.17.32,2.1,2.1,0,0,0-.79.88,2.8,2.8,0,0,0-.27,1.28,2.53,2.53,0,0,0,.31,1.28,2.29,2.29,0,0,0,.85.87,2.46,2.46,0,0,0,1.26.32,2.58,2.58,0,0,0,.85-.15,1.88,1.88,0,0,0,.69-.37.46.46,0,0,1,.29-.11.55.55,0,0,1,.29.08.49.49,0,0,1,.16.32.32.32,0,0,1-.14.27,3.13,3.13,0,0,1-1,.56A3.51,3.51,0,0,1,85.54,202.81Z"/><path class="cls-1" d="M92.09,202.81a3.24,3.24,0,0,1-2.86-1.6,3.52,3.52,0,0,1,0-3.37,3.17,3.17,0,0,1,1.13-1.17,3.08,3.08,0,0,1,1.63-.43,3,3,0,0,1,1.43.33,2.9,2.9,0,0,1,1,.9V194a.42.42,0,0,1,.13-.33.48.48,0,0,1,.66,0,.42.42,0,0,1,.13.33v5.58a3.47,3.47,0,0,1-.46,1.66,3.15,3.15,0,0,1-1.16,1.16A3.23,3.23,0,0,1,92.09,202.81Zm0-.82a2.34,2.34,0,0,0,2.07-1.21,2.7,2.7,0,0,0,0-2.51,2.35,2.35,0,0,0-.85-.89,2.47,2.47,0,0,0-3.3,3.4,2.34,2.34,0,0,0,.86.88A2.3,2.3,0,0,0,92.09,202Z"/><path class="cls-1" d="M99.27,202.81a4.21,4.21,0,0,1-1.38-.23,2.66,2.66,0,0,1-1.11-.71.39.39,0,0,1-.1-.32.46.46,0,0,1,.17-.3.48.48,0,0,1,.35-.1.46.46,0,0,1,.29.15,1.82,1.82,0,0,0,.75.51,2.9,2.9,0,0,0,1,.18,2.17,2.17,0,0,0,1.27-.3.9.9,0,0,0,.4-.73.83.83,0,0,0-.4-.7,3.46,3.46,0,0,0-1.32-.44,3.54,3.54,0,0,1-1.75-.65,1.45,1.45,0,0,1-.55-1.13,1.52,1.52,0,0,1,.32-1,1.85,1.85,0,0,1,.84-.6,3.57,3.57,0,0,1,2.54.07,2.39,2.39,0,0,1,.92.73.39.39,0,0,1-.09.6.49.49,0,0,1-.32,0,.45.45,0,0,1-.31-.16,1.85,1.85,0,0,0-.69-.51,2.49,2.49,0,0,0-.9-.16,1.8,1.8,0,0,0-1,.27.78.78,0,0,0-.39.67.8.8,0,0,0,.15.47,1.17,1.17,0,0,0,.51.35,4.53,4.53,0,0,0,1,.26,4.41,4.41,0,0,1,1.39.42,1.78,1.78,0,0,1,.74.65,1.6,1.6,0,0,1,.21.81,1.54,1.54,0,0,1-.31,1,2.24,2.24,0,0,1-.91.66A3.38,3.38,0,0,1,99.27,202.81Z"/><path class="cls-1" d="M108.84,202.81a3.26,3.26,0,0,1-1.69-.42,3.06,3.06,0,0,1-1.17-1.17,3.54,3.54,0,0,1,0-3.38,3.08,3.08,0,0,1,1.17-1.18,3.36,3.36,0,0,1,1.69-.42,3.33,3.33,0,0,1,1.68.42,3.06,3.06,0,0,1,1.16,1.18,3.37,3.37,0,0,1,.44,1.69,3.27,3.27,0,0,1-.43,1.69,3.13,3.13,0,0,1-1.17,1.17A3.23,3.23,0,0,1,108.84,202.81Zm0-.82a2.42,2.42,0,0,0,1.23-.32,2.26,2.26,0,0,0,.84-.87,2.54,2.54,0,0,0,.31-1.27,2.48,2.48,0,0,0-.31-1.26,2.25,2.25,0,0,0-.84-.89,2.42,2.42,0,0,0-1.23-.32,2.4,2.4,0,0,0-1.23.32,2.37,2.37,0,0,0-.86.89,2.48,2.48,0,0,0-.31,1.26,2.54,2.54,0,0,0,.31,1.27,2.35,2.35,0,0,0,2.09,1.19Z"/><path class="cls-1" d="M113.88,202.76a.42.42,0,0,1-.33-.13.41.41,0,0,1-.13-.32v-5.55a.42.42,0,0,1,.13-.34.45.45,0,0,1,.33-.13.44.44,0,0,1,.32.13.42.42,0,0,1,.13.34v5.55a.44.44,0,0,1-.45.45Zm5.08,0a.44.44,0,0,1-.33-.13.42.42,0,0,1-.13-.32v-3.08a2.32,2.32,0,0,0-.28-1.2,1.8,1.8,0,0,0-.76-.71,2.38,2.38,0,0,0-1.08-.24,2.24,2.24,0,0,0-1,.24,1.91,1.91,0,0,0-.74.6,1.56,1.56,0,0,0-.27.89h-.65a2.63,2.63,0,0,1,.4-1.33,2.65,2.65,0,0,1,1-.91,2.9,2.9,0,0,1,1.4-.34,3.22,3.22,0,0,1,1.5.34,2.58,2.58,0,0,1,1,1,3.17,3.17,0,0,1,.39,1.63v3.08a.46.46,0,0,1-.13.32A.44.44,0,0,1,119,202.76Z"/><path class="cls-1" d="M126.87,202.81a3.23,3.23,0,0,1-1.68-.42,3.08,3.08,0,0,1-1.18-1.17,3.61,3.61,0,0,1,0-3.38,3.11,3.11,0,0,1,1.18-1.18,3.33,3.33,0,0,1,1.68-.42,3.39,3.39,0,0,1,1.69.42,3.06,3.06,0,0,1,1.16,1.18,3.48,3.48,0,0,1,.44,1.69,3.27,3.27,0,0,1-.44,1.69,3,3,0,0,1-1.16,1.17A3.29,3.29,0,0,1,126.87,202.81Zm0-.82a2.4,2.4,0,0,0,1.23-.32,2.29,2.29,0,0,0,.85-.87,2.54,2.54,0,0,0,.31-1.27,2.48,2.48,0,0,0-.31-1.26,2.27,2.27,0,0,0-.85-.89,2.4,2.4,0,0,0-1.23-.32,2.45,2.45,0,0,0-1.23.32,2.35,2.35,0,0,0-.85.89,2.48,2.48,0,0,0-.31,1.26,2.54,2.54,0,0,0,.31,1.27,2.36,2.36,0,0,0,.85.87A2.45,2.45,0,0,0,126.87,202Z"/><path class="cls-1" d="M131.91,202.76a.42.42,0,0,1-.33-.13.41.41,0,0,1-.13-.32v-5.55a.42.42,0,0,1,.13-.34.45.45,0,0,1,.33-.13.44.44,0,0,1,.32.13.42.42,0,0,1,.13.34v5.55a.44.44,0,0,1-.45.45Zm5.07,0a.44.44,0,0,1-.32-.13.42.42,0,0,1-.13-.32v-3.08a2.42,2.42,0,0,0-.28-1.2,1.8,1.8,0,0,0-.76-.71,2.38,2.38,0,0,0-1.08-.24,2.24,2.24,0,0,0-1,.24,1.84,1.84,0,0,0-.74.6,1.56,1.56,0,0,0-.27.89h-.65a2.63,2.63,0,0,1,.4-1.33,2.65,2.65,0,0,1,1-.91,2.87,2.87,0,0,1,1.4-.34,3.22,3.22,0,0,1,1.5.34,2.58,2.58,0,0,1,1,1,3.28,3.28,0,0,1,.39,1.63v3.08a.43.43,0,0,1-.14.32A.41.41,0,0,1,137,202.76Z"/><path class="cls-1" d="M141.91,202.81a3.37,3.37,0,0,1-1.7-.41,3,3,0,0,1-1.16-1.17,3.4,3.4,0,0,1-.42-1.7,3.56,3.56,0,0,1,.4-1.7,2.93,2.93,0,0,1,1.09-1.17,3.06,3.06,0,0,1,1.6-.42,3,3,0,0,1,1.57.4,2.91,2.91,0,0,1,1,1.13,3.64,3.64,0,0,1,.36,1.65.37.37,0,0,1-.12.29.41.41,0,0,1-.31.11h-5v-.75h5.11l-.51.37a2.85,2.85,0,0,0-.24-1.23,2,2,0,0,0-1.89-1.16,2.14,2.14,0,0,0-1.17.32,2.1,2.1,0,0,0-.79.88,2.8,2.8,0,0,0-.27,1.28,2.53,2.53,0,0,0,.31,1.28,2.29,2.29,0,0,0,.85.87,2.46,2.46,0,0,0,1.26.32,2.58,2.58,0,0,0,.85-.15,1.88,1.88,0,0,0,.69-.37.44.44,0,0,1,.29-.11.55.55,0,0,1,.29.08.49.49,0,0,1,.16.32.32.32,0,0,1-.14.27,3.13,3.13,0,0,1-1,.56A3.51,3.51,0,0,1,141.91,202.81Z"/><path class="cls-1" d="M149.2,205.52a.42.42,0,0,1-.34-.13.41.41,0,0,1-.12-.33v-5.57a3.26,3.26,0,0,1,.43-1.66,3.15,3.15,0,0,1,1.18-1.17,3.28,3.28,0,0,1,1.66-.42,3.32,3.32,0,0,1,1.69.43,3.28,3.28,0,0,1,1.17,1.17,3.32,3.32,0,0,1,.43,1.69,3.38,3.38,0,0,1-.42,1.68,3.2,3.2,0,0,1-1.14,1.17,3.29,3.29,0,0,1-3.06.1,2.72,2.72,0,0,1-1-.89v3.47a.42.42,0,0,1-.13.33A.41.41,0,0,1,149.2,205.52ZM152,202a2.36,2.36,0,0,0,1.22-.32,2.27,2.27,0,0,0,.86-.88,2.64,2.64,0,0,0,0-2.52,2.37,2.37,0,0,0-2.08-1.21,2.3,2.3,0,0,0-1.22.33,2.25,2.25,0,0,0-.85.88,2.72,2.72,0,0,0,0,2.52,2.25,2.25,0,0,0,.85.88A2.39,2.39,0,0,0,152,202Z"/><path class="cls-1" d="M158,202.76a1.4,1.4,0,0,1-.84-.27,1.67,1.67,0,0,1-.58-.72,2.47,2.47,0,0,1-.21-1.06V194a.44.44,0,0,1,.46-.46.46.46,0,0,1,.32.13.45.45,0,0,1,.12.33v6.72a1.48,1.48,0,0,0,.21.83.62.62,0,0,0,.52.32h.3a.35.35,0,0,1,.28.12.46.46,0,0,1,.11.33.39.39,0,0,1-.15.32.55.55,0,0,1-.38.13Z"/><path class="cls-1" d="M162,202.81a3.1,3.1,0,0,1-1.63-.43,3.17,3.17,0,0,1-1.13-1.17,3.38,3.38,0,0,1-.42-1.68,3.32,3.32,0,0,1,.43-1.69,3.2,3.2,0,0,1,1.17-1.17,3.28,3.28,0,0,1,1.68-.43,3.22,3.22,0,0,1,1.67.43,3.28,3.28,0,0,1,1.17,1.17,3.43,3.43,0,0,1,.44,1.69l-.37.29a2.89,2.89,0,0,1-.39,1.52,2.8,2.8,0,0,1-1.08,1.08A3,3,0,0,1,162,202.81Zm.1-.82a2.39,2.39,0,0,0,1.22-.32,2.42,2.42,0,0,0,.86-.88,2.72,2.72,0,0,0,0-2.52,2.42,2.42,0,0,0-.86-.88,2.42,2.42,0,0,0-2.44,0,2.51,2.51,0,0,0,0,4.28A2.39,2.39,0,0,0,162.06,202Zm2.82.77a.44.44,0,0,1-.33-.13.41.41,0,0,1-.13-.32v-2l.23-.94.69.18v2.78a.41.41,0,0,1-.13.32A.43.43,0,0,1,164.88,202.76Z"/><path class="cls-1" d="M166.22,197.32a.46.46,0,0,1-.3-.11.36.36,0,0,1-.11-.28.38.38,0,0,1,.11-.29.46.46,0,0,1,.3-.11h3a.44.44,0,0,1,.3.11.38.38,0,0,1,.12.29.36.36,0,0,1-.12.28.44.44,0,0,1-.3.11Zm2.94,5.44a2.07,2.07,0,0,1-1.11-.3,2.17,2.17,0,0,1-.78-.81,2.36,2.36,0,0,1-.28-1.17V194.7a.53.53,0,0,1,.12-.33.47.47,0,0,1,.33-.13.49.49,0,0,1,.33.13.44.44,0,0,1,.13.33v5.78a1.36,1.36,0,0,0,.36,1,1.14,1.14,0,0,0,.9.38h.32a.42.42,0,0,1,.31.13.49.49,0,0,1,.12.34.42.42,0,0,1-.14.32.52.52,0,0,1-.36.13Z"/><path class="cls-1" d="M170.53,197.32a.41.41,0,0,1-.3-.11.36.36,0,0,1-.11-.28.38.38,0,0,1,.11-.29.41.41,0,0,1,.3-.11h3.08a.42.42,0,0,1,.3.11.42.42,0,0,1,.11.29.39.39,0,0,1-.11.28.42.42,0,0,1-.3.11Zm1.19,5.44a.42.42,0,0,1-.31-.13.42.42,0,0,1-.13-.34v-6a3.6,3.6,0,0,1,.28-1.45,2.31,2.31,0,0,1,.84-1,2.57,2.57,0,0,1,1.36-.35.49.49,0,0,1,.34.12.41.41,0,0,1,.12.3.4.4,0,0,1-.12.29.49.49,0,0,1-.34.12,1.52,1.52,0,0,0-.88.24,1.43,1.43,0,0,0-.52.68,2.72,2.72,0,0,0-.16,1v6a.42.42,0,0,1-.13.34A.45.45,0,0,1,171.72,202.76Z"/><path class="cls-1" d="M177.47,202.81a3.29,3.29,0,0,1-1.69-.42,3.13,3.13,0,0,1-1.17-1.17,3.54,3.54,0,0,1,0-3.38,3.16,3.16,0,0,1,1.17-1.18,3.39,3.39,0,0,1,1.69-.42,3.33,3.33,0,0,1,1.68.42,3.06,3.06,0,0,1,1.16,1.18,3.37,3.37,0,0,1,.44,1.69,3.27,3.27,0,0,1-.43,1.69,3.13,3.13,0,0,1-1.17,1.17A3.23,3.23,0,0,1,177.47,202.81Zm0-.82a2.42,2.42,0,0,0,1.23-.32,2.26,2.26,0,0,0,.84-.87,2.55,2.55,0,0,0,.32-1.27,2.48,2.48,0,0,0-.32-1.26,2.25,2.25,0,0,0-.84-.89,2.42,2.42,0,0,0-1.23-.32,2.4,2.4,0,0,0-1.23.32,2.37,2.37,0,0,0-.86.89,2.48,2.48,0,0,0-.31,1.26,2.54,2.54,0,0,0,.31,1.27,2.35,2.35,0,0,0,2.09,1.19Z"/><path class="cls-1" d="M182.5,202.76a.42.42,0,0,1-.45-.45v-5.56a.45.45,0,0,1,.12-.34.45.45,0,0,1,.33-.12.43.43,0,0,1,.33.12.45.45,0,0,1,.12.34v5.56a.45.45,0,0,1-.12.33A.43.43,0,0,1,182.5,202.76Zm-.07-4a2.71,2.71,0,0,1,.38-1.31,2.56,2.56,0,0,1,.91-.91,2.34,2.34,0,0,1,1.25-.33,1.91,1.91,0,0,1,.84.15.37.37,0,0,1,.22.45.3.3,0,0,1-.16.23.45.45,0,0,1-.27.05l-.36,0a2.74,2.74,0,0,0-1.17.14,1.89,1.89,0,0,0-.82.6,1.57,1.57,0,0,0-.3,1Z"/><path class="cls-1" d="M187.44,202.76a.42.42,0,0,1-.33-.13.41.41,0,0,1-.13-.32v-5.55a.43.43,0,0,1,.13-.33.42.42,0,0,1,.33-.14.42.42,0,0,1,.32.14.43.43,0,0,1,.13.33v5.55a.44.44,0,0,1-.45.45Zm4.15,0a.45.45,0,0,1-.34-.13.44.44,0,0,1-.12-.32v-3.4a1.94,1.94,0,0,0-.44-1.33,1.44,1.44,0,0,0-1.12-.5,1.62,1.62,0,0,0-1.21.48,1.73,1.73,0,0,0-.47,1.25h-.65a3.05,3.05,0,0,1,.34-1.34,2.33,2.33,0,0,1,.85-.91,2.22,2.22,0,0,1,1.23-.33,2.23,2.23,0,0,1,2.07,1.26,3.13,3.13,0,0,1,.31,1.42v3.4a.44.44,0,0,1-.45.45Zm4.11,0a.42.42,0,0,1-.32-.13.41.41,0,0,1-.13-.32v-3.4a1.94,1.94,0,0,0-.44-1.33,1.42,1.42,0,0,0-1.12-.5,1.58,1.58,0,0,0-1.2.5,1.77,1.77,0,0,0-.45,1.3h-.82a2.84,2.84,0,0,1,.35-1.39,2.18,2.18,0,0,1,.9-.93,2.52,2.52,0,0,1,1.32-.33,2.22,2.22,0,0,1,1.23.33,2.17,2.17,0,0,1,.84.93,3.27,3.27,0,0,1,.3,1.42v3.4a.44.44,0,0,1-.13.32A.42.42,0,0,1,195.7,202.76Z"/><path class="cls-1" d="M26,191.5a1.84,1.84,0,0,1-1.88-1.88V165.05a1.8,1.8,0,0,1,.54-1.35,1.85,1.85,0,0,1,1.34-.53h7.27a9.58,9.58,0,0,1,4.82,1.2,8.58,8.58,0,0,1,3.28,3.32,9.78,9.78,0,0,1,1.18,4.87,9.29,9.29,0,0,1-1.18,4.72,8.42,8.42,0,0,1-3.28,3.23,9.88,9.88,0,0,1-4.82,1.16H27.9v8a1.92,1.92,0,0,1-.52,1.34A1.83,1.83,0,0,1,26,191.5Zm1.89-13.31h5.38a5.84,5.84,0,0,0,2.93-.72,5.31,5.31,0,0,0,2-2,5.69,5.69,0,0,0,.73-2.91,6.18,6.18,0,0,0-.73-3.06,5.38,5.38,0,0,0-2-2.08,5.57,5.57,0,0,0-2.93-.77H27.9Z"/><path class="cls-1" d="M47.16,191.5a1.82,1.82,0,0,1-1.34-.54,1.87,1.87,0,0,1-.55-1.34V165.05a1.85,1.85,0,0,1,1.89-1.88h6.53a10,10,0,0,1,4.83,1.14,8.54,8.54,0,0,1,3.28,3.14A9,9,0,0,1,63,172.09a8.06,8.06,0,0,1-4.45,7.41,10.44,10.44,0,0,1-4.83,1.08H49v9a1.88,1.88,0,0,1-.52,1.34A1.81,1.81,0,0,1,47.16,191.5ZM49,177.1h4.65a6.52,6.52,0,0,0,2.94-.63,5,5,0,0,0,2-1.78,4.7,4.7,0,0,0,.73-2.6,5.45,5.45,0,0,0-.73-2.83,5,5,0,0,0-2-1.91,6,6,0,0,0-2.94-.7H49Zm13.18,14.4a2,2,0,0,1-.93-.21,1.81,1.81,0,0,1-.7-.7l-6.54-10.51L57.72,179l6,9.58a1.9,1.9,0,0,1,.17,2A1.66,1.66,0,0,1,62.22,191.5Z"/><path class="cls-1" d="M79.85,191.86A15.3,15.3,0,0,1,74,190.79a13.22,13.22,0,0,1-4.56-3,13.91,13.91,0,0,1-3-4.61,15.68,15.68,0,0,1-1-5.87,15.47,15.47,0,0,1,1-5.83,13.72,13.72,0,0,1,3-4.59,13.24,13.24,0,0,1,4.56-3,16.42,16.42,0,0,1,11.66,0,13.49,13.49,0,0,1,4.55,3,13.34,13.34,0,0,1,3,4.59,15.87,15.87,0,0,1,1,5.83,16.09,16.09,0,0,1-1,5.87,13.31,13.31,0,0,1-7.53,7.61A15.16,15.16,0,0,1,79.85,191.86Zm0-3.4a10.8,10.8,0,0,0,4.33-.86,10.53,10.53,0,0,0,3.43-2.35,10.83,10.83,0,0,0,2.24-3.54,12.9,12.9,0,0,0,0-8.78,10.73,10.73,0,0,0-2.24-3.54,10.35,10.35,0,0,0-3.43-2.34,11.74,11.74,0,0,0-8.67,0,10.27,10.27,0,0,0-3.41,2.34,10.68,10.68,0,0,0-2.22,3.54,12.45,12.45,0,0,0,0,8.78,10.78,10.78,0,0,0,2.22,3.54,10.45,10.45,0,0,0,3.41,2.35A10.85,10.85,0,0,0,79.85,188.46Z"/><path class="cls-1" d="M105.75,191.5a1.81,1.81,0,0,1-1.31-.54,1.86,1.86,0,0,1-.54-1.34v-8.46l-9.69-15a2.05,2.05,0,0,1-.36-1.43,1.62,1.62,0,0,1,.64-1.09,1.88,1.88,0,0,1,1.21-.42,1.57,1.57,0,0,1,1,.27,3,3,0,0,1,.7.78l9.21,14.62h-1.45l9.36-14.76a2.07,2.07,0,0,1,.68-.67,1.94,1.94,0,0,1,1-.24,1.41,1.41,0,0,1,1.08.45,1.79,1.79,0,0,1,.51,1.13,2.08,2.08,0,0,1-.36,1.36l-9.76,15v8.46a1.84,1.84,0,0,1-1.88,1.88Z"/><path class="cls-1" d="M131.4,191.86a15.35,15.35,0,0,1-5.85-1.07,13.27,13.27,0,0,1-4.55-3,13.93,13.93,0,0,1-3-4.61,15.88,15.88,0,0,1-1-5.87,15.67,15.67,0,0,1,1-5.83,13.74,13.74,0,0,1,3-4.59,13.3,13.3,0,0,1,4.55-3,15.54,15.54,0,0,1,5.85-1.07,15.33,15.33,0,0,1,5.81,1.07,13.43,13.43,0,0,1,4.56,3,13.64,13.64,0,0,1,3,4.59,15.87,15.87,0,0,1,1,5.83,16.09,16.09,0,0,1-1,5.87,13.82,13.82,0,0,1-3,4.61,13.41,13.41,0,0,1-4.56,3A15.14,15.14,0,0,1,131.4,191.86Zm0-3.4a10.83,10.83,0,0,0,4.33-.86,10.49,10.49,0,0,0,3.42-2.35,10.67,10.67,0,0,0,2.24-3.54,12.74,12.74,0,0,0,0-8.78,10.57,10.57,0,0,0-2.24-3.54,10.31,10.31,0,0,0-3.42-2.34,11.74,11.74,0,0,0-8.67,0,10.17,10.17,0,0,0-3.41,2.34,10.7,10.7,0,0,0-2.23,3.54,12.45,12.45,0,0,0,0,8.78,10.81,10.81,0,0,0,2.23,3.54,10.34,10.34,0,0,0,3.41,2.35A10.81,10.81,0,0,0,131.4,188.46Z"/><path class="cls-1" d="M148.29,191.5A1.69,1.69,0,0,1,147,191a2.18,2.18,0,0,1-.55-1.26,1.73,1.73,0,0,1,.39-1.24l17.74-22H148.66a1.85,1.85,0,0,1-1.37-.46,1.44,1.44,0,0,1-.41-1.14,1.47,1.47,0,0,1,.51-1.25,2,2,0,0,1,1.34-.49h18.72a1.8,1.8,0,0,1,1.34.51,1.92,1.92,0,0,1,.58,1.21,1.63,1.63,0,0,1-.4,1.26l-17.81,22h16.29a1.83,1.83,0,0,1,1.34.5,1.51,1.51,0,0,1,.51,1.14,1.6,1.6,0,0,1-.51,1.25,1.94,1.94,0,0,1-1.34.45Z"/><path class="cls-1" d="M184.47,191.86a15.38,15.38,0,0,1-5.85-1.07,13.27,13.27,0,0,1-4.55-3,14.09,14.09,0,0,1-3-4.61,15.88,15.88,0,0,1-1-5.87,15.67,15.67,0,0,1,1-5.83,13.9,13.9,0,0,1,3-4.59,13.3,13.3,0,0,1,4.55-3,15.58,15.58,0,0,1,5.85-1.07,15.33,15.33,0,0,1,5.81,1.07,13.43,13.43,0,0,1,4.56,3,13.64,13.64,0,0,1,3,4.59,15.87,15.87,0,0,1,1,5.83,16.09,16.09,0,0,1-1,5.87,13.82,13.82,0,0,1-3,4.61,13.41,13.41,0,0,1-4.56,3A15.14,15.14,0,0,1,184.47,191.86Zm0-3.4a10.83,10.83,0,0,0,4.33-.86,10.38,10.38,0,0,0,3.42-2.35,10.67,10.67,0,0,0,2.24-3.54,12.74,12.74,0,0,0,0-8.78,10.57,10.57,0,0,0-2.24-3.54,10.21,10.21,0,0,0-3.42-2.34,11.74,11.74,0,0,0-8.67,0,10.17,10.17,0,0,0-3.41,2.34,10.7,10.7,0,0,0-2.23,3.54,12.45,12.45,0,0,0,0,8.78,10.81,10.81,0,0,0,2.23,3.54,10.34,10.34,0,0,0,3.41,2.35A10.81,10.81,0,0,0,184.47,188.46Z"/><path class="cls-1" d="M203,191.5a1.79,1.79,0,0,1-1.33-.54,1.88,1.88,0,0,1-.52-1.34V165.05a1.82,1.82,0,0,1,.52-1.35,1.78,1.78,0,0,1,1.33-.53,1.82,1.82,0,0,1,1.45.69l15.81,21V165.05a1.83,1.83,0,0,1,1.89-1.88,1.78,1.78,0,0,1,1.35.53,1.89,1.89,0,0,1,.5,1.35v24.57a2,2,0,0,1-.5,1.34,1.79,1.79,0,0,1-1.35.54,2.36,2.36,0,0,1-.78-.16,1.52,1.52,0,0,1-.67-.49l-15.81-21v19.81a1.89,1.89,0,0,1-.53,1.34A1.82,1.82,0,0,1,203,191.5Z"/><path class="cls-2" d="M48.3,37,72.68,140.49A83.88,83.88,0,0,1,48.3,37Z"/><path class="cls-1" d="M170,48.62a51,51,0,0,0-11.13-22,41.89,41.89,0,0,0-18.94-12.31c-7.34-2.37-15.15-2.37-23.68-.48l-41,9.71,20.83,87.85,41-9.71c8.28-2.13,15.39-5.68,21.07-10.89a43.89,43.89,0,0,0,11.6-18.71C171.89,64.72,171.89,56.91,170,48.62ZM128.8,80.11c-12.08,3.08-24.15-4.5-27.23-16.57A22.63,22.63,0,1,1,128.8,80.11Z"/><path class="cls-2" d="M208.36,73.72A84.18,84.18,0,0,1,124.07,158a104,104,0,0,1-17.29-1.66l-4.26-18.47,40.72-9.7c13.74-3.32,25.34-9.24,34.57-17.52A63.47,63.47,0,0,0,197,80.11a70.8,70.8,0,0,0,.48-37.88,86.56,86.56,0,0,0-9.24-23.44A84.64,84.64,0,0,1,208.36,73.72Z"/></svg>